<?xml version="1.0" encoding="utf-8"?>
<!-- Generator: Adobe Illustrator 25.2.3, SVG Export Plug-In . SVG Version: 6.00 Build 0)  -->
<svg version="1.1" id="Слой_1" xmlns="http://www.w3.org/2000/svg" xmlns:xlink="http://www.w3.org/1999/xlink" x="0px" y="0px"
	 viewBox="0 0 200 200" style="enable-background:new 0 0 200 200;" xml:space="preserve">
<style type="text/css">
	.st0{fill:#65C8D0;}
	.st1{fill:none;}
	.st2{font-family:'ArialMT';}
	.st3{font-size:14.1373px;}
	.st4{font-size:14.138px;}
	.st5{font-size:14.1366px;}
	.st6{font-size:14.1378px;}
	.st7{font-size:14.1381px;}
	.st8{font-size:14.1365px;}
	.st9{font-size:14.1379px;}
	.st10{font-size:14.1367px;}
	.st11{font-size:14.1369px;}
	.st12{font-size:14.1368px;}
	.st13{fill:#FFFFFF;stroke:#F40000;stroke-miterlimit:10;}
</style>
<circle class="st0" cx="100" cy="100" r="100"/>
<ellipse transform="matrix(0.2458 -0.9693 0.9693 0.2458 -22.7983 177.6471)" class="st1" cx="102.8" cy="103.5" rx="87.7" ry="88.8"/>
<text transform="matrix(-0.3426 -0.9532 0.9411 -0.3382 20.8661 137.2104)" class="st2 st3">П</text>
<text transform="matrix(-0.2444 -0.983 0.9705 -0.2413 17.5173 127.7594)" class="st2 st4">р</text>
<text transform="matrix(-0.1555 -1.0009 0.9881 -0.1535 15.6331 120.2164)" class="st2 st5">о</text>
<text transform="matrix(-6.987601e-02 -1.0105 0.9976 -6.898695e-02 14.45 112.5533)" class="st2 st3">с</text>
<text transform="matrix(8.437230e-03 -1.0129 1 8.329897e-03 13.9734 105.5991)" class="st2 st6">т</text>
<text transform="matrix(8.938878e-02 -1.0089 0.9961 8.825149e-02 13.9829 99.3927)" class="st2 st3">о</text>
<text transform="matrix(0.1567 -1.0006 0.9879 0.1548 14.7333 91.6278)" class="st2 st7"> </text>
<text transform="matrix(0.2211 -0.9885 0.9759 0.2182 15.2665 87.8208)" class="st2 st3">в</text>
<text transform="matrix(0.3051 -0.9659 0.9536 0.3012 16.8624 80.6011)" class="st2 st8">р</text>
<text transform="matrix(0.39 -0.9348 0.9229 0.385 19.1943 73.1911)" class="st2 st3">е</text>
<text transform="matrix(0.4818 -0.891 0.8796 0.4757 22.1199 66.0279)" class="st2 st3">м</text>
<text transform="matrix(0.5686 -0.8382 0.8276 0.5614 26.7111 57.6097)" class="st2 st9">е</text>
<text transform="matrix(0.6412 -0.7841 0.7741 0.633 31.0639 51.1798)" class="st2 st10">н</text>
<text transform="matrix(0.708 -0.7243 0.7151 0.699 35.9355 45.207)" class="st2 st3">н</text>
<text transform="matrix(0.7775 -0.6491 0.6409 0.7676 41.2552 39.6627)" class="st2 st3">ы</text>
<text transform="matrix(0.8389 -0.5676 0.5604 0.8282 48.9987 33.2574)" class="st2 st3">й</text>
<text transform="matrix(0.8743 -0.5113 0.5048 0.8632 55.519 28.9188)" class="st2 st11"> </text>
<text transform="matrix(0.907 -0.451 0.4452 0.8954 58.7947 26.9119)" class="st2 st3">л</text>
<text transform="matrix(0.9441 -0.3668 0.3621 0.9321 66.227 23.2246)" class="st2 st12">о</text>
<text transform="matrix(0.9681 -0.2978 0.294 0.9558 73.5072 20.4418)" class="st2 st3">г</text>
<text transform="matrix(0.9863 -0.2306 0.2277 0.9737 78.0294 18.9849)" class="st2 st11">о</text>
<text transform="matrix(1.0009 -0.1551 0.1531 0.9882 85.2936 17.2944)" class="st2 st3">т</text>
<text transform="matrix(1.0101 -7.501809e-02 7.406364e-02 0.9973 91.5732 16.2838)" class="st2 st4">и</text>
<text transform="matrix(1.0128 1.241244e-02 -1.225450e-02 0.9999 99.3675 15.7028)" class="st2 st3">п</text>
<text transform="matrix(1.0096 8.127654e-02 -8.024243e-02 0.9968 106.9403 15.8401)" class="st2 st3">-</text>
<text transform="matrix(1.0027 0.1431 -0.1413 0.99 111.5495 16.1794)" class="st2 st6">з</text>
<text transform="matrix(0.9885 0.2208 -0.218 0.9759 117.8739 17.0478)" class="st2 st5">а</text>
<text transform="matrix(0.9706 0.2897 -0.286 0.9582 125.4867 18.7924)" class="st2 st3">г</text>
<text transform="matrix(0.9481 0.3565 -0.352 0.936 130.0547 20.0811)" class="st2 st3">л</text>
<text transform="matrix(0.9147 0.435 -0.4295 0.9031 137.6838 22.9673)" class="st2 st3">у</text>
<text transform="matrix(0.8657 0.5258 -0.5191 0.8547 143.9943 25.8332)" class="st2 st3">ш</text>
<text transform="matrix(0.8106 0.6074 -0.5997 0.8002 153.5563 31.7771)" class="st2 st3">к</text>
<text transform="matrix(0.7586 0.6712 -0.6627 0.7489 158.6806 35.581)" class="st2 st3">а</text>
<g>
	<path d="M42.8,140.2l-11.1-21.1l14.3-7.5l1.3,2.5l-11.5,6l3.4,6.5l9.9-5.2l1.3,2.5l-9.9,5.2l5.1,9.6L42.8,140.2z"/>
	<path d="M69.4,123.8c-0.5,1.3-1.2,2.4-1.9,3.2c-0.7,0.8-1.6,1.5-2.6,2c-1.7,0.9-3.2,1.2-4.5,0.8c-1.3-0.3-2.3-1.2-3-2.4
		c-0.4-0.8-0.6-1.5-0.6-2.3s0.2-1.5,0.6-2.2c0.4-0.7,0.8-1.3,1.4-1.8c0.4-0.4,1.1-0.9,2.1-1.6c2-1.4,3.4-2.5,4.2-3.3
		c-0.2-0.4-0.3-0.6-0.3-0.7c-0.6-1.1-1.2-1.7-1.9-1.8c-1-0.2-2.1,0-3.4,0.7c-1.2,0.6-2,1.3-2.4,2.1s-0.4,1.7-0.1,3l-2.7,1
		c-0.3-1.2-0.4-2.3-0.2-3.2c0.2-0.9,0.7-1.9,1.5-2.7c0.8-0.9,1.9-1.7,3.2-2.4c1.3-0.7,2.5-1.1,3.4-1.2c1-0.1,1.8-0.1,2.4,0.2
		c0.6,0.3,1.2,0.7,1.7,1.3c0.3,0.4,0.8,1.2,1.4,2.3l1.8,3.5c1.3,2.4,2.1,3.9,2.6,4.5c0.4,0.6,1,1.1,1.6,1.5l-2.7,1.4
		C70.4,125,69.9,124.5,69.4,123.8z M66.2,118.1c-0.7,0.9-2,2-3.7,3.2c-1,0.7-1.7,1.3-2,1.7c-0.3,0.4-0.5,0.9-0.6,1.4s0.1,1,0.3,1.4
		c0.4,0.7,0.9,1.1,1.7,1.3s1.7,0,2.7-0.5s1.8-1.2,2.3-2.1c0.5-0.8,0.8-1.7,0.8-2.7c0-0.7-0.3-1.7-0.9-2.8L66.2,118.1z"/>
	<path d="M86.9,117l-1.2-2.3c-0.3,2.4-1.4,4.1-3.5,5.2c-0.9,0.5-1.8,0.7-2.8,0.8c-1,0.1-1.8-0.1-2.4-0.4c-0.7-0.3-1.3-0.8-1.8-1.5
		c-0.4-0.5-0.9-1.2-1.4-2.3l-5-9.5l2.6-1.4l4.5,8.5c0.7,1.4,1.2,2.2,1.6,2.7c0.5,0.6,1.2,1,1.9,1.1s1.5,0,2.3-0.4s1.4-1,1.9-1.8
		s0.7-1.6,0.6-2.4s-0.5-1.9-1.1-3.2l-4.3-8.2l2.6-1.4l8.1,15.3L86.9,117z"/>
	<path d="M93.3,113.7l-8.1-15.3l2.3-1.2l1.1,2.2c0.2-2.3,1.4-4,3.5-5.1c0.9-0.5,1.9-0.8,2.8-0.8c0.9-0.1,1.8,0.1,2.4,0.4
		c0.7,0.3,1.3,0.8,1.8,1.5c0.3,0.4,0.8,1.2,1.5,2.4l5,9.4l-2.6,1.4l-4.9-9.3c-0.6-1.1-1.1-1.8-1.6-2.2c-0.5-0.4-1.1-0.6-1.7-0.7
		c-0.7,0-1.4,0.1-2.1,0.5c-1.1,0.6-1.9,1.4-2.3,2.6c-0.4,1.1-0.1,2.7,0.9,4.6l4.4,8.4L93.3,113.7z"/>
	<path d="M100.2,86.9l-1.6-3l2.6-1.4l1.6,3L100.2,86.9z M109.7,105l-8.1-15.3l2.6-1.4l8.1,15.3L109.7,105z"/>
	<path d="M135.5,88.5l1.6,2.1c-0.6,0.5-1.3,1-1.8,1.3c-0.9,0.5-1.8,0.7-2.4,0.7s-1.2-0.2-1.7-0.6s-1.1-1.3-1.9-2.9l-4.6-8.8l-1.9,1
		l-1.1-2l1.9-1l-2-3.8l1.8-2.9l2.8,5.4l2.6-1.4l1.1,2l-2.6,1.4l4.7,9c0.4,0.7,0.7,1.2,0.9,1.4c0.2,0.2,0.4,0.3,0.7,0.3
		s0.6-0.1,1-0.3C134.7,89,135,88.8,135.5,88.5z"/>
	<path d="M129.7,71.3l-1.6-3l2.6-1.4l1.6,3L129.7,71.3z M139.3,89.5l-8.1-15.3l2.6-1.4l8.1,15.3L139.3,89.5z"/>
	<path d="M152.8,75.2l2.7-1c0.6,1.9,0.7,3.7,0,5.3c-0.6,1.6-1.8,2.8-3.4,3.7c-2.1,1.1-4.1,1.3-6.1,0.6s-3.7-2.3-5-4.9
		c-0.9-1.7-1.4-3.2-1.5-4.8c-0.1-1.5,0.2-2.9,1-4.1s1.8-2.2,3.2-2.9c1.7-0.9,3.2-1.2,4.7-0.9c1.5,0.3,2.8,1.1,3.9,2.5l-2.3,1.7
		c-0.8-0.9-1.6-1.5-2.5-1.7s-1.8-0.1-2.6,0.4c-1.3,0.7-2.1,1.7-2.4,3.1c-0.3,1.4,0,3.1,1.1,5.1c1.1,2.1,2.3,3.3,3.5,3.9
		c1.3,0.5,2.6,0.4,3.8-0.2c1-0.5,1.7-1.3,2.1-2.3C153.4,77.7,153.3,76.6,152.8,75.2z"/>
	<path d="M169.6,71.1c-0.5,1.3-1.2,2.4-1.9,3.2c-0.7,0.8-1.6,1.5-2.6,2c-1.7,0.9-3.2,1.2-4.5,0.8c-1.3-0.3-2.3-1.2-3-2.4
		c-0.4-0.8-0.6-1.5-0.6-2.3s0.2-1.5,0.6-2.2c0.4-0.7,0.8-1.3,1.4-1.8c0.4-0.4,1.1-0.9,2.1-1.6c2-1.4,3.4-2.5,4.2-3.3
		c-0.2-0.4-0.3-0.6-0.3-0.7c-0.6-1.1-1.2-1.7-1.9-1.8c-1-0.2-2.1,0-3.4,0.7c-1.2,0.6-2,1.3-2.4,2.1c-0.4,0.7-0.4,1.7-0.1,3l-2.7,1
		c-0.3-1.2-0.4-2.3-0.2-3.2c0.2-0.9,0.7-1.9,1.5-2.7s1.9-1.7,3.2-2.4s2.5-1.1,3.4-1.2c1-0.1,1.8-0.1,2.4,0.2
		c0.6,0.3,1.2,0.7,1.7,1.3c0.3,0.4,0.8,1.2,1.4,2.3l1.8,3.5c1.3,2.4,2.1,3.9,2.6,4.5c0.4,0.6,1,1.1,1.6,1.5l-2.7,1.4
		C170.5,72.3,170,71.8,169.6,71.1z M166.3,65.4c-0.7,0.9-2,2-3.7,3.2c-1,0.7-1.7,1.3-2,1.7c-0.3,0.4-0.5,0.9-0.6,1.4
		c0,0.5,0.1,1,0.3,1.4c0.4,0.7,0.9,1.1,1.7,1.3c0.8,0.2,1.7,0,2.7-0.5s1.8-1.2,2.3-2.1c0.5-0.8,0.8-1.7,0.8-2.7
		c0-0.7-0.3-1.7-0.9-2.8L166.3,65.4z"/>
	<path d="M119.4,142l1.3,2.5l-14,7.4c-0.3-0.6-0.6-1.3-0.6-2c-0.1-1.1-0.1-2.4,0.2-3.7c0.3-1.3,0.9-3,1.7-5c1.3-3.1,2.1-5.4,2.3-6.9
		c0.2-1.5,0.1-2.8-0.4-3.8s-1.4-1.7-2.5-2s-2.3-0.2-3.4,0.5c-1.3,0.7-2.1,1.6-2.4,2.7c-0.4,1.1-0.2,2.4,0.5,3.7l-2.8,1.1
		c-0.9-2.1-1-4-0.3-5.6c0.6-1.7,2-3,4-4.1s3.9-1.3,5.7-0.8c1.8,0.5,3.1,1.6,4,3.2c0.4,0.8,0.7,1.8,0.8,2.8c0.1,1,0,2.2-0.4,3.5
		c-0.3,1.3-1,3.3-2,5.8c-0.9,2.1-1.4,3.5-1.6,4.2s-0.3,1.4-0.4,2L119.4,142z"/>
	<path d="M125,142.3l-1.6-3l3-1.6l1.6,3L125,142.3z"/>
	<path d="M126.2,128.3c-1.3-2.5-2.1-4.6-2.4-6.4s-0.1-3.4,0.4-4.7c0.6-1.4,1.6-2.4,3.2-3.3c1.1-0.6,2.2-0.9,3.3-0.9s2.1,0.3,3.2,0.9
		c1,0.6,2,1.4,3,2.5s2,2.7,3.1,4.7c1.3,2.5,2.1,4.6,2.4,6.4c0.3,1.8,0.1,3.4-0.4,4.7c-0.6,1.4-1.6,2.5-3.2,3.3c-2,1.1-4,1.2-6,0.3
		C130.5,134.7,128.3,132.2,126.2,128.3z M128.9,126.9c1.8,3.5,3.4,5.6,4.9,6.3c1.4,0.7,2.7,0.8,3.9,0.1s1.9-1.7,2.1-3.3
		s-0.6-4.1-2.4-7.6c-1.8-3.5-3.5-5.6-4.9-6.3c-1.4-0.7-2.7-0.8-3.9-0.1c-1.2,0.6-1.9,1.6-2.1,3C126.3,120.8,127.1,123.4,128.9,126.9
		z"/>
	<path d="M116.9,185.1l-6.7-10.8l-2.5-4.7l3.2-1.7l2.5,4.7l5.1,11.6L116.9,185.1z M119,190.7l-1.6-3l3-1.6l1.6,3L119,190.7z"/>
	<path d="M125.1,180.7l-6.7-10.8l-2.5-4.7l3.2-1.7l2.5,4.7l5.1,11.6L125.1,180.7z M127.2,186.3l-1.6-3l3-1.6l1.6,3L127.2,186.3z"/>
	<path d="M133.3,176.4l-6.7-10.8l-2.5-4.7l3.2-1.7l2.5,4.7l5.1,11.6L133.3,176.4z M135.4,182l-1.6-3l3-1.6l1.6,3L135.4,182z"/>
	<path d="M141.5,172.1l-6.7-10.8l-2.5-4.7l3.2-1.7l2.5,4.7l5.1,11.6L141.5,172.1z M143.6,177.7l-1.6-3l3-1.6l1.6,3L143.6,177.7z"/>
	<path d="M149.7,167.8L143,157l-2.5-4.7l3.2-1.7l2.5,4.7l5.1,11.6L149.7,167.8z M151.8,173.4l-1.6-3l3-1.6l1.6,3L151.8,173.4z"/>
	<path d="M157.9,163.5l-6.7-10.8l-2.5-4.7l3.2-1.7l2.5,4.7l5.1,11.6L157.9,163.5z M160,169.1l-1.6-3l3-1.6l1.6,3L160,169.1z"/>
	<path d="M166.1,159.2l-6.7-10.8l-2.5-4.7l3.2-1.7l2.5,4.7l5.1,11.6L166.1,159.2z M168.2,164.8l-1.6-3l3-1.6l1.6,3L168.2,164.8z"/>
</g>
<g>
	<path d="M120.8,103.4c-1.5,0.1-3-0.4-4.5-1.5s-3-2.9-4.3-5.1l3.1-1.9c1.3,2.2,2.7,3.5,4,3.7l-3.4-9.6c-1.8-0.3-3.4-1-4.8-2.2
		c-1.4-1.2-2.5-2.6-3.3-4.2c-0.7-1.5-1.2-3-1.4-4.6c-0.2-1.6,0-3.1,0.5-4.3c0.5-1.2,1.2-2,2-2.5l0.7-0.3l-0.7-1.9l1.8-0.9l0.8,2.2
		c1.3-0.1,2.6,0.3,3.9,1.2c1.3,0.9,2.5,2.3,3.6,4.2l-3,1.9c-0.9-1.4-1.9-2.3-2.8-2.5l3.1,8.6c2,0.2,3.7,0.9,5.1,2
		c1.4,1.1,2.6,2.6,3.5,4.5c1.3,2.6,1.8,5.1,1.6,7.6c-0.3,2.4-1.4,4.2-3.4,5.2l1.3,3.8l-1.8,0.9L120.8,103.4z M113.7,83.3l-2.8-7.9
		c-0.7,0.4-1.1,1-1.2,2s0.1,2,0.6,3C111.1,81.9,112.2,82.9,113.7,83.3z M118,89.3l3.1,8.7c0.9-0.6,1.4-1.5,1.5-2.5
		c0.1-1.1-0.1-2.2-0.7-3.3c-0.4-0.7-0.8-1.3-1.3-1.7C120,90,119.2,89.6,118,89.3z"/>
</g>
<polygon class="st13" points="58.2,86.7 62.6,104.3 68.8,84.2 78.1,97.4 84.8,74 104.4,72.1 103.6,56.1 114.5,59.6 113.2,54 
	123.8,47.7 109.9,49.3 128.3,37.5 106.9,38.7 118,27 103.5,32 105.1,19.5 96.8,30.7 87.2,19 81.8,37.7 67.3,33 61.2,48.3 42.2,53.3 
	43.7,63.1 23.8,68.6 33.4,74.9 26.6,84.4 47.5,83.1 36.5,105.2 "/>
<g>
	<path d="M39.4,70.1l3.9-2.5l0.3,0.8l-3.1,2l0.8,2.1l1.2-0.8c0.6-0.4,1.1-0.6,1.4-0.7s0.6,0,0.9,0.1c0.3,0.1,0.6,0.3,0.8,0.7
		c0.3,0.4,0.4,0.8,0.3,1.3c0,0.5-0.2,0.9-0.4,1.3c-0.3,0.4-0.8,0.8-1.5,1.3L42,77L39.4,70.1z M42.5,75.7l0.7-0.4
		c0.7-0.5,1.2-0.8,1.4-1.1c0.3-0.3,0.4-0.6,0.4-0.9c0-0.3-0.1-0.6-0.2-0.9c-0.1-0.2-0.3-0.3-0.5-0.4c-0.2-0.1-0.4-0.1-0.6,0
		c-0.2,0.1-0.5,0.2-0.9,0.5l-1.3,0.8L42.5,75.7z"/>
	<path d="M46.5,71.8c-0.5-0.9-0.7-1.7-0.6-2.6c0.1-0.7,0.5-1.3,1.2-1.7c0.5-0.3,1.1-0.4,1.6-0.3c0.5,0.1,1,0.5,1.3,1
		c0.3,0.5,0.5,1,0.6,1.6c0.1,0.6,0,1.1-0.2,1.5c-0.2,0.5-0.6,0.8-1,1.1c-0.3,0.2-0.7,0.3-1.1,0.4c-0.4,0-0.7,0-1-0.2
		S46.7,72.2,46.5,71.8z M47.2,71.3c0.3,0.4,0.6,0.7,0.9,0.7c0.3,0.1,0.7,0,1-0.2c0.2-0.1,0.3-0.2,0.4-0.4c0.1-0.2,0.2-0.4,0.2-0.6
		c0.1-0.2,0.1-0.4,0.1-0.7c0-0.2-0.1-0.5-0.1-0.7c-0.1-0.3-0.2-0.6-0.4-0.9c-0.2-0.4-0.5-0.6-0.9-0.7c-0.3-0.1-0.7,0-1,0.1
		c-0.2,0.1-0.4,0.3-0.5,0.6c-0.1,0.2-0.2,0.5-0.2,0.8c0,0.3,0,0.6,0.1,1C46.9,70.8,47,71,47.2,71.3z"/>
	<path d="M50.4,65.5l3.3-2.1l1.8,5l-0.7,0.5l-1.6-4.3l-1.8,1.2l1.1,3c0.2,0.5,0.3,0.9,0.2,1.2c0,0.3-0.2,0.5-0.5,0.7
		c-0.2,0.1-0.4,0.2-0.7,0.4l-0.3-0.7c0.1-0.1,0.2-0.1,0.3-0.2c0.2-0.1,0.3-0.2,0.3-0.4c0-0.1-0.1-0.5-0.3-1L50.4,65.5z"/>
	<path d="M54.8,62.7l0.7-0.5l0.7,1.9l0.8-0.5c0.5-0.3,0.9-0.5,1.2-0.6c0.3-0.1,0.5,0,0.8,0.1c0.2,0.1,0.4,0.3,0.6,0.5
		c0.2,0.3,0.3,0.6,0.3,1c0,0.4-0.1,0.7-0.3,0.9c-0.2,0.2-0.5,0.5-1.1,0.9l-1.9,1.2L54.8,62.7z M57.1,66.5l1-0.6
		c0.4-0.2,0.6-0.4,0.7-0.6C59,65.2,59,65,59,64.8c0-0.2,0-0.4-0.1-0.6c-0.1-0.2-0.2-0.3-0.4-0.3c-0.2-0.1-0.3-0.1-0.5,0
		c-0.1,0.1-0.4,0.2-0.7,0.4l-0.8,0.5L57.1,66.5z"/>
	<path d="M59.3,59.9l0.7-0.5l1.2,3.2c0.1,0.3,0.2,0.5,0.3,0.6c0.1,0.2,0.2,0.3,0.4,0.3c0.1,0,0.3,0,0.4-0.1c0.3-0.2,0.4-0.4,0.6-0.7
		c0.1-0.3,0.2-0.6,0.2-0.8c0-0.3-0.1-0.6-0.2-1.1l-0.9-2.5l0.7-0.5l1.2,3.3c0.1,0.2,0.2,0.4,0.3,0.6c0.1,0.2,0.2,0.3,0.3,0.3
		c0.1,0,0.3,0,0.4-0.1c0.3-0.2,0.5-0.5,0.7-1c0.1-0.5,0.1-1-0.2-1.7c0,0,0-0.1,0-0.1l-0.8-2.3l0.7-0.5l1.8,5l-0.7,0.5l-0.3-0.8
		c-0.1,0.8-0.4,1.4-0.9,1.7c-0.3,0.2-0.6,0.3-0.9,0.2c-0.3,0-0.5-0.2-0.7-0.4c-0.1,0.4-0.2,0.8-0.3,1.1c-0.2,0.3-0.4,0.5-0.6,0.7
		c-0.3,0.2-0.6,0.3-0.9,0.2c-0.3,0-0.6-0.2-0.7-0.5c-0.1-0.2-0.3-0.5-0.5-1.1L59.3,59.9z"/>
	<path d="M70.4,56.9l0.8-0.4c0.1,0.4,0.1,0.9-0.1,1.5c-0.2,0.6-0.5,1-1,1.3c-0.3,0.2-0.7,0.3-1,0.3c-0.4,0-0.7-0.1-1-0.3
		c-0.3-0.2-0.6-0.5-0.8-0.8c-0.3-0.5-0.5-1-0.6-1.6c-0.1-0.6,0-1.1,0.2-1.5c0.2-0.4,0.5-0.8,0.9-1.1c0.5-0.3,1-0.4,1.6-0.3
		c0.5,0.1,1,0.5,1.3,1c0.1,0.2,0.3,0.4,0.4,0.7l-3.2,2c0,0.1,0.1,0.2,0.1,0.2c0.3,0.4,0.6,0.7,0.9,0.8c0.3,0.1,0.6,0.1,0.9-0.1
		c0.3-0.2,0.5-0.4,0.6-0.7C70.4,57.6,70.5,57.3,70.4,56.9z M67.5,57.2l2.5-1.6c0-0.1-0.1-0.1-0.1-0.2c-0.2-0.4-0.5-0.6-0.8-0.7
		c-0.3-0.1-0.6,0-0.9,0.2c-0.3,0.2-0.5,0.5-0.7,0.9C67.4,56.2,67.4,56.6,67.5,57.2z"/>
	<path d="M73.3,51l0.7-0.5l0.8,2.1l0.1-0.1c0.2-0.1,0.3-0.3,0.4-0.5s0.1-0.6,0.1-1.1c0-0.6,0-1,0.1-1.2s0.3-0.4,0.6-0.6l0.3-0.2
		l0.2,0.7l-0.2,0.1c-0.2,0.1-0.3,0.2-0.3,0.3c0,0.1-0.1,0.3,0,0.6c0,0.4,0,0.8-0.1,1c-0.1,0.2-0.2,0.5-0.3,0.7c0.2,0,0.4,0,0.6,0
		c0.2,0.1,0.4,0.2,0.7,0.4l1.4,1l-0.8,0.5l-1.1-0.8c-0.4-0.3-0.7-0.5-0.9-0.5s-0.4,0-0.7,0.2l0.9,2.3l-0.7,0.5L73.3,51z"/>
	<path d="M79.8,55.3l-2.6-6.9L78,48l0.3,0.7c0.1-0.4,0.2-0.8,0.3-1c0.1-0.2,0.3-0.4,0.5-0.6c0.4-0.3,0.9-0.3,1.3-0.2
		c0.5,0.1,0.9,0.5,1.2,1c0.3,0.5,0.5,0.9,0.6,1.4c0.1,0.5,0.1,0.9,0,1.3c-0.1,0.4-0.2,0.7-0.3,0.9c-0.2,0.2-0.4,0.5-0.6,0.6
		c-0.5,0.3-1.1,0.3-1.7,0l1,2.7L79.8,55.3z M79.1,50.9c0.2,0.3,0.4,0.5,0.5,0.6c0.2,0.1,0.4,0.2,0.6,0.2s0.4,0,0.6-0.2
		c0.4-0.3,0.6-0.7,0.6-1.4c0-0.6-0.2-1.2-0.5-1.7c-0.2-0.4-0.5-0.6-0.8-0.7c-0.3-0.1-0.6,0-0.9,0.1c-0.2,0.1-0.3,0.3-0.4,0.5
		c-0.1,0.2-0.2,0.4-0.2,0.7c0,0.3,0,0.6,0.1,1C78.9,50.4,79,50.7,79.1,50.9z"/>
	<path d="M86.3,47.7c-0.1,0.9-0.5,1.6-1,1.9c-0.3,0.2-0.7,0.3-1,0.2c-0.3-0.1-0.6-0.2-0.8-0.5c-0.1-0.2-0.3-0.5-0.5-1L82,45.5
		l0.7-0.5l1.2,3.2c0.1,0.3,0.2,0.5,0.3,0.6c0.1,0.2,0.2,0.3,0.4,0.3c0.2,0,0.3,0,0.5-0.1c0.2-0.1,0.4-0.3,0.5-0.5s0.2-0.5,0.3-0.7
		c0-0.3,0-0.5,0-0.8c0-0.2-0.1-0.5-0.3-0.9l-0.8-2.1l0.7-0.5l1.9,5l-0.7,0.4L86.3,47.7z"/>
	<path d="M86.7,42.5l0.7-0.5l0.8,2.1l2-1.3l-0.8-2.1l0.7-0.5l1.9,5l-0.7,0.5l-0.8-2.2l-2,1.3l0.8,2.2l-0.7,0.5L86.7,42.5z"/>
	<path d="M93.3,38.3l0.7-0.5l0.8,2.1l0.1,0c0.2-0.1,0.3-0.3,0.3-0.5c0.1-0.2,0.1-0.6,0.1-1.1c0-0.6,0-0.9,0.2-1.2s0.3-0.4,0.5-0.6
		c0.2-0.1,0.3-0.2,0.5-0.2l0.1,0.6c-0.1,0-0.2,0.1-0.3,0.1c-0.1,0.1-0.2,0.2-0.2,0.3c0,0.1,0,0.4,0,0.8c0,0.7-0.1,1.3-0.4,1.6
		c0.2,0,0.3,0,0.5,0c0.2,0,0.4,0.2,0.8,0.4l1.4,1l-0.8,0.5l-1.1-0.8c-0.4-0.3-0.6-0.4-0.8-0.5c-0.2-0.1-0.4,0-0.6,0.1l0.9,2.3
		l-0.7,0.5l-0.9-2.3c-0.1,0.1-0.3,0.2-0.3,0.4c-0.1,0.2-0.1,0.6-0.2,1.2l-0.2,1.7l-0.9,0.6l0.2-2.2c0.1-0.6,0.3-1.1,0.6-1.5
		c-0.2,0-0.4,0-0.6-0.1c-0.2-0.1-0.4-0.3-0.7-0.7c-0.2-0.2-0.3-0.3-0.4-0.3c-0.1,0-0.2,0-0.3,0c-0.1,0-0.2,0.1-0.3,0.3L91,39.8
		c0.1-0.1,0.2-0.2,0.4-0.3c0.3-0.2,0.5-0.2,0.7-0.1c0.2,0.1,0.5,0.3,0.8,0.6c0.3,0.3,0.6,0.5,0.7,0.6c0.2,0.1,0.4,0,0.6-0.1
		L93.3,38.3z"/>
	<path d="M101.6,38.4c-0.1,0.4-0.3,0.7-0.4,1c-0.2,0.3-0.4,0.5-0.7,0.6c-0.4,0.3-0.8,0.3-1.2,0.3c-0.4-0.1-0.7-0.3-1-0.7
		c-0.2-0.2-0.2-0.5-0.2-0.8c0-0.3,0-0.5,0.2-0.7s0.3-0.5,0.5-0.7c0.1-0.1,0.4-0.4,0.9-0.7c0.5-0.3,0.8-0.6,0.9-0.8
		c-0.1-0.2-0.2-0.4-0.2-0.6c-0.1-0.2-0.3-0.3-0.4-0.3c-0.3,0-0.6,0.1-0.9,0.3c-0.3,0.2-0.5,0.4-0.6,0.7c-0.1,0.3-0.1,0.6-0.1,0.9
		l-0.8,0.4c-0.1-0.5-0.1-1,0.1-1.5c0.2-0.4,0.5-0.8,1-1.1c0.5-0.3,1.1-0.5,1.5-0.4c0.4,0,0.6,0.2,0.8,0.5c0.1,0.2,0.3,0.5,0.4,0.9
		l0.4,1.2c0.1,0.4,0.3,0.7,0.4,0.9c0.1,0.1,0.2,0.3,0.5,0.5l-0.8,0.5C101.9,38.8,101.8,38.6,101.6,38.4z M100.8,36.5
		c-0.1,0.1-0.2,0.2-0.3,0.3c-0.1,0.1-0.3,0.2-0.6,0.5c-0.4,0.3-0.7,0.6-0.8,0.7c-0.1,0.2-0.2,0.4-0.2,0.5c0,0.2,0,0.4,0.1,0.5
		c0.1,0.2,0.3,0.3,0.5,0.4c0.2,0,0.5,0,0.7-0.2c0.2-0.2,0.4-0.4,0.6-0.6c0.1-0.3,0.2-0.6,0.2-0.9C101.1,37.4,101,37,100.8,36.5z"/>
	<path d="M52.6,75.8l0.7-0.5c0.2,0.5,0.2,0.8,0,1.1s-0.4,0.5-0.7,0.7l-0.8,0.5c-0.3,0.2-0.5,0.3-0.5,0.5s-0.1,0.4-0.1,0.6
		s0,0.6,0.2,1.2c0.1-0.5,0.3-0.8,0.5-1c0.2-0.2,0.4-0.4,0.5-0.4c0.4-0.3,0.9-0.3,1.4-0.3c0.5,0.1,1,0.4,1.4,1
		c0.5,0.7,0.6,1.5,0.5,2.3c-0.1,0.8-0.5,1.4-1.2,1.9c-0.6,0.4-1.1,0.5-1.6,0.3c-0.5-0.1-1-0.5-1.3-1c-0.4-0.6-0.7-1.4-0.9-2.5
		c-0.3-1.1-0.3-1.8-0.1-2.3c0.2-0.5,0.6-0.9,1.1-1.2l0.7-0.4C52.6,76.1,52.7,76,52.6,75.8z M54.5,79.6c-0.2-0.4-0.5-0.6-0.8-0.7
		c-0.3-0.1-0.6-0.1-1,0.1c-0.5,0.3-0.7,0.8-0.8,1.4c0,0.6,0.1,1.2,0.5,1.8c0.2,0.3,0.5,0.5,0.8,0.6c0.3,0.1,0.7,0.1,1-0.1
		c0.5-0.3,0.7-0.8,0.7-1.4S54.8,80.1,54.5,79.6z"/>
	<path d="M56.4,79.7c-0.5-0.9-0.7-1.7-0.6-2.6c0.1-0.7,0.5-1.3,1.2-1.7c0.5-0.3,1.1-0.4,1.6-0.3c0.5,0.1,1,0.5,1.3,1
		c0.3,0.5,0.5,1,0.6,1.6c0.1,0.6,0,1.1-0.2,1.5c-0.2,0.5-0.6,0.8-1,1.1c-0.3,0.2-0.7,0.3-1.1,0.4c-0.4,0-0.7,0-1-0.2
		C56.8,80.4,56.6,80.1,56.4,79.7z M57.1,79.2c0.3,0.4,0.6,0.7,0.9,0.7c0.3,0.1,0.7,0,1-0.2c0.2-0.1,0.3-0.2,0.4-0.4
		c0.1-0.2,0.2-0.4,0.2-0.6c0.1-0.2,0.1-0.4,0.1-0.7c0-0.2-0.1-0.5-0.1-0.7c-0.1-0.3-0.2-0.6-0.4-0.9c-0.3-0.4-0.5-0.6-0.9-0.7
		c-0.3-0.1-0.7,0-1,0.1c-0.2,0.1-0.4,0.3-0.5,0.6c-0.1,0.2-0.2,0.5-0.2,0.8c0,0.3,0,0.6,0.1,1C56.8,78.7,56.9,79,57.1,79.2z"/>
	<path d="M61.1,74.5l-0.7,0.4c-0.2-1,0.1-1.7,1-2.2c0.5-0.3,1-0.5,1.4-0.4c0.4,0.1,0.7,0.3,0.9,0.6c0.1,0.2,0.2,0.5,0.2,0.7
		c0,0.2-0.1,0.5-0.2,0.7s-0.4,0.5-0.8,0.9c-0.5,0.5-0.7,0.8-0.8,1c-0.1,0.2-0.1,0.4,0,0.6c0.1,0.2,0.3,0.3,0.6,0.3s0.6-0.1,0.8-0.3
		c0.3-0.2,0.6-0.5,0.6-0.7c0.1-0.2,0.1-0.6,0-1l0.7-0.4c0.3,1.1,0,2-1,2.6c-0.6,0.4-1.1,0.5-1.5,0.5c-0.4,0-0.8-0.2-1-0.6
		c-0.2-0.2-0.2-0.5-0.2-0.8c0-0.3,0.1-0.5,0.2-0.8c0.1-0.2,0.4-0.5,0.8-0.9c0.5-0.5,0.8-0.9,0.8-1.1c0-0.2,0-0.4-0.1-0.5
		c-0.1-0.2-0.3-0.2-0.5-0.3c-0.2,0-0.5,0.1-0.8,0.2c-0.3,0.2-0.5,0.3-0.5,0.5C61.1,73.9,61,74.2,61.1,74.5z"/>
	<path d="M66.9,77.7L66.5,77c0.2-0.1,0.3-0.1,0.5-0.2c0.2-0.1,0.3-0.2,0.3-0.3c0.1-0.2,0.1-0.4,0.1-0.8l0-0.6l-3.5-3.9l0.7-0.5
		l1.7,2c0.3,0.4,0.7,0.8,1,1.2L67,69.2l0.8-0.5l0.4,6.7c0,0.7,0,1.1-0.1,1.4c-0.1,0.3-0.3,0.5-0.6,0.7
		C67.3,77.6,67.1,77.7,66.9,77.7z"/>
	<path d="M70.9,66.7l0.7-0.5l0.8,2.1l0.1-0.1c0.2-0.1,0.3-0.3,0.4-0.5c0.1-0.2,0.1-0.6,0.1-1.1c0-0.6,0-1,0.1-1.2
		c0.1-0.2,0.3-0.4,0.6-0.6l0.3-0.2l0.2,0.7l-0.2,0.1c-0.2,0.1-0.3,0.2-0.3,0.3c0,0.1-0.1,0.3,0,0.6c0,0.4,0,0.8,0,1
		c-0.1,0.2-0.2,0.5-0.3,0.7c0.2,0,0.4,0,0.6,0c0.2,0.1,0.4,0.2,0.7,0.4l1.4,1l-0.8,0.5l-1.1-0.8c-0.4-0.3-0.7-0.5-0.9-0.5
		c-0.2,0-0.4,0-0.7,0.2l0.9,2.3l-0.7,0.5L70.9,66.7z"/>
	<path d="M77.4,71.1l-2.6-6.9l0.7-0.4l0.3,0.7c0.1-0.4,0.2-0.8,0.3-1c0.1-0.2,0.3-0.4,0.5-0.6c0.4-0.3,0.9-0.3,1.3-0.2
		c0.5,0.1,0.9,0.5,1.2,1c0.3,0.5,0.5,0.9,0.6,1.4c0.1,0.5,0.1,0.9,0,1.3c-0.1,0.4-0.2,0.7-0.3,0.9c-0.2,0.2-0.4,0.5-0.6,0.6
		c-0.5,0.3-1.1,0.3-1.7,0l1,2.7L77.4,71.1z M76.7,66.7c0.2,0.3,0.4,0.5,0.5,0.6c0.2,0.1,0.4,0.2,0.6,0.2s0.4,0,0.6-0.2
		c0.4-0.3,0.6-0.7,0.6-1.4c0-0.6-0.2-1.2-0.5-1.7c-0.2-0.4-0.5-0.6-0.8-0.7c-0.3-0.1-0.6-0.1-0.9,0.1c-0.2,0.1-0.3,0.3-0.4,0.5
		c-0.1,0.2-0.2,0.4-0.2,0.7c0,0.3,0,0.6,0.1,1C76.4,66.2,76.5,66.5,76.7,66.7z"/>
	<path d="M83.9,63.5c-0.1,0.9-0.5,1.6-1,1.9c-0.3,0.2-0.7,0.3-1,0.2c-0.3-0.1-0.6-0.2-0.8-0.5c-0.1-0.2-0.3-0.5-0.5-1l-1.1-2.9
		l0.7-0.5l1.2,3.2c0.1,0.3,0.2,0.5,0.3,0.6c0.1,0.2,0.2,0.3,0.4,0.3c0.2,0,0.3,0,0.5-0.1c0.2-0.1,0.4-0.3,0.5-0.5
		c0.1-0.2,0.2-0.5,0.3-0.7c0-0.3,0-0.5,0-0.8c0-0.2-0.1-0.5-0.3-0.9l-0.8-2.1L83,59l1.9,5l-0.7,0.4L83.9,63.5z"/>
	<path d="M84.2,58.3l0.7-0.5l0.8,2.1l2-1.3L87,56.5l0.7-0.5l1.9,5l-0.7,0.5L88,59.2l-2,1.3l0.8,2.2l-0.7,0.5L84.2,58.3z"/>
	<path d="M90.8,54.1l0.7-0.5l0.8,2.1l0.1,0c0.2-0.1,0.3-0.3,0.3-0.5c0.1-0.2,0.1-0.6,0.1-1.1c0-0.6,0-0.9,0.2-1.2
		c0.1-0.2,0.3-0.4,0.5-0.6c0.2-0.1,0.3-0.2,0.5-0.2l0.1,0.6c-0.1,0-0.2,0.1-0.3,0.1c-0.1,0.1-0.2,0.2-0.2,0.3c0,0.1,0,0.4,0,0.8
		c0,0.7-0.1,1.3-0.4,1.6c0.2,0,0.3,0,0.5,0c0.2,0,0.4,0.2,0.8,0.4l1.4,1.1l-0.8,0.5L94,56.6c-0.4-0.3-0.6-0.4-0.8-0.5
		c-0.2-0.1-0.4,0-0.6,0.1l0.9,2.3L92.7,59l-0.9-2.3c-0.1,0.1-0.3,0.2-0.3,0.4s-0.1,0.6-0.2,1.2L91.1,60l-0.9,0.6l0.2-2.2
		c0.1-0.6,0.3-1.1,0.6-1.5c-0.2,0-0.4,0-0.6-0.1c-0.2-0.1-0.4-0.3-0.7-0.7c-0.2-0.2-0.3-0.3-0.4-0.3c-0.1,0-0.2,0-0.3,0
		c-0.1,0-0.2,0.1-0.3,0.3l-0.3-0.5c0.1-0.1,0.2-0.2,0.4-0.3c0.3-0.2,0.5-0.2,0.7-0.1c0.2,0.1,0.5,0.3,0.8,0.6
		c0.3,0.3,0.6,0.5,0.7,0.6c0.2,0.1,0.4,0,0.6-0.1L90.8,54.1z"/>
	<path d="M99.1,54.2c-0.1,0.4-0.3,0.7-0.4,1c-0.2,0.3-0.4,0.5-0.7,0.6c-0.4,0.3-0.8,0.3-1.2,0.3s-0.7-0.3-1-0.7
		c-0.2-0.2-0.2-0.5-0.2-0.8c0-0.3,0-0.5,0.2-0.7s0.3-0.5,0.5-0.7c0.1-0.1,0.4-0.4,0.9-0.7c0.5-0.3,0.8-0.6,0.9-0.8
		c-0.1-0.2-0.1-0.4-0.2-0.6c-0.1-0.2-0.3-0.3-0.4-0.3c-0.3,0-0.6,0.1-0.9,0.3c-0.3,0.2-0.5,0.4-0.6,0.7c-0.1,0.3-0.1,0.6-0.1,0.9
		l-0.8,0.4c-0.1-0.5-0.1-1,0.1-1.5c0.2-0.4,0.5-0.8,1-1.1c0.5-0.3,1.1-0.5,1.5-0.4c0.4,0,0.6,0.2,0.8,0.5c0.1,0.2,0.3,0.5,0.4,0.9
		l0.4,1.2c0.1,0.4,0.3,0.7,0.4,0.9c0.1,0.1,0.2,0.3,0.5,0.5l-0.8,0.5C99.4,54.5,99.3,54.4,99.1,54.2z M98.4,52.3
		c-0.1,0.1-0.2,0.2-0.3,0.3c-0.1,0.1-0.3,0.2-0.6,0.5c-0.4,0.3-0.7,0.6-0.8,0.7c-0.1,0.2-0.2,0.4-0.2,0.5c0,0.2,0,0.4,0.1,0.5
		c0.1,0.2,0.3,0.3,0.5,0.4c0.2,0,0.5,0,0.7-0.2c0.2-0.2,0.4-0.4,0.6-0.6c0.1-0.3,0.2-0.6,0.2-0.9C98.7,53.2,98.6,52.8,98.4,52.3z"/>
	<path d="M100.9,51.7l-1.6-3.6l-0.5-1.4l0.9-0.6l0.6,1.5l1.1,3.7L100.9,51.7z M101.4,53.5l-0.4-1l0.8-0.5l0.4,1L101.4,53.5z"/>
	<path d="M103.3,50.2l-1.6-3.6l-0.5-1.4l0.9-0.6l0.6,1.5l1.1,3.7L103.3,50.2z M103.8,52l-0.4-1l0.8-0.5l0.4,1L103.8,52z"/>
</g>
</svg>
