<?xml version="1.0" encoding="utf-8"?>
<!-- Generator: Adobe Illustrator 25.2.3, SVG Export Plug-In . SVG Version: 6.00 Build 0)  -->
<svg version="1.2" baseProfile="tiny" id="Слой_1"
	 xmlns="http://www.w3.org/2000/svg" xmlns:xlink="http://www.w3.org/1999/xlink" x="0px" y="0px" viewBox="0 0 200 200"
	 overflow="visible" xml:space="preserve">
<circle fill="#65C8D0" cx="100" cy="100" r="100"/>
<ellipse transform="matrix(0.2458 -0.9693 0.9693 0.2458 -22.8306 177.6779)" fill="none" cx="102.8" cy="103.5" rx="87.7" ry="88.8"/>
<text transform="matrix(-0.3426 -0.9532 0.9411 -0.3382 20.8662 137.2109)" font-family="'ArialMT'" font-size="14.1373px">П</text>
<text transform="matrix(-0.2444 -0.983 0.9705 -0.2413 17.5172 127.7581)" font-family="'ArialMT'" font-size="14.1373px">р</text>
<text transform="matrix(-0.1555 -1.0009 0.9881 -0.1535 15.6331 120.2162)" font-family="'ArialMT'" font-size="14.1373px">о</text>
<text transform="matrix(-6.987601e-02 -1.0105 0.9976 -6.898695e-02 14.45 112.5522)" font-family="'ArialMT'" font-size="14.1373px">с</text>
<text transform="matrix(8.437523e-03 -1.0129 1 8.330186e-03 13.9732 105.5992)" font-family="'ArialMT'" font-size="14.1373px">т</text>
<text transform="matrix(8.938879e-02 -1.0089 0.9961 8.825149e-02 13.9831 99.3928)" font-family="'ArialMT'" font-size="14.1373px">о</text>
<text transform="matrix(0.1567 -1.0007 0.988 0.1548 14.7339 91.6272)" font-family="'ArialMT'" font-size="14.1373px"> </text>
<text transform="matrix(0.2211 -0.9885 0.9759 0.2182 15.2667 87.8206)" font-family="'ArialMT'" font-size="14.1373px">в</text>
<text transform="matrix(0.3051 -0.9658 0.9535 0.3012 16.8623 80.6012)" font-family="'ArialMT'" font-size="14.1373px">р</text>
<text transform="matrix(0.39 -0.9348 0.9229 0.385 19.1942 73.1917)" font-family="'ArialMT'" font-size="14.1373px">е</text>
<text transform="matrix(0.4818 -0.891 0.8796 0.4757 22.1195 66.0283)" font-family="'ArialMT'" font-size="14.1373px">м</text>
<text transform="matrix(0.5686 -0.8382 0.8276 0.5614 26.7109 57.6099)" font-family="'ArialMT'" font-size="14.1373px">е</text>
<text transform="matrix(0.6412 -0.7841 0.7741 0.633 31.0634 51.1796)" font-family="'ArialMT'" font-size="14.1373px">н</text>
<text transform="matrix(0.708 -0.7243 0.7151 0.699 35.9353 45.2074)" font-family="'ArialMT'" font-size="14.1373px">н</text>
<text transform="matrix(0.7775 -0.6491 0.6409 0.7676 41.256 39.6628)" font-family="'ArialMT'" font-size="14.1373px">ы</text>
<text transform="matrix(0.8389 -0.5676 0.5604 0.8282 48.9992 33.2575)" font-family="'ArialMT'" font-size="14.1373px">й</text>
<text transform="matrix(0.8743 -0.5113 0.5048 0.8632 55.5191 28.9196)" font-family="'ArialMT'" font-size="14.1373px"> </text>
<text transform="matrix(0.907 -0.451 0.4452 0.8954 58.7955 26.9122)" font-family="'ArialMT'" font-size="14.1373px">л</text>
<text transform="matrix(0.9441 -0.3668 0.3621 0.9321 66.2266 23.2244)" font-family="'ArialMT'" font-size="14.1373px">о</text>
<text transform="matrix(0.9681 -0.2978 0.294 0.9558 73.5076 20.4421)" font-family="'ArialMT'" font-size="14.1373px">г</text>
<text transform="matrix(0.9863 -0.2306 0.2277 0.9737 78.0298 18.9848)" font-family="'ArialMT'" font-size="14.1373px">о</text>
<text transform="matrix(1.0009 -0.1551 0.1531 0.9882 85.2941 17.2939)" font-family="'ArialMT'" font-size="14.1373px">т</text>
<text transform="matrix(1.0101 -7.502159e-02 7.406709e-02 0.9973 91.5737 16.2841)" font-family="'ArialMT'" font-size="14.1373px">и</text>
<text transform="matrix(1.0128 1.241244e-02 -1.225450e-02 0.9999 99.3677 15.7027)" font-family="'ArialMT'" font-size="14.1373px">п</text>
<text transform="matrix(1.0096 8.127654e-02 -8.024243e-02 0.9968 106.9402 15.8403)" font-family="'ArialMT'" font-size="14.1373px">-</text>
<text transform="matrix(1.0027 0.1431 -0.1413 0.99 111.5489 16.1796)" font-family="'ArialMT'" font-size="14.1373px">з</text>
<text transform="matrix(0.9885 0.2208 -0.218 0.9759 117.8741 17.0483)" font-family="'ArialMT'" font-size="14.1373px">а</text>
<text transform="matrix(0.9706 0.2897 -0.286 0.9582 125.4865 18.7928)" font-family="'ArialMT'" font-size="14.1373px">г</text>
<text transform="matrix(0.9481 0.3565 -0.352 0.936 130.055 20.0815)" font-family="'ArialMT'" font-size="14.1373px">л</text>
<text transform="matrix(0.9147 0.435 -0.4295 0.9031 137.6841 22.9678)" font-family="'ArialMT'" font-size="14.1373px">у</text>
<text transform="matrix(0.8657 0.5258 -0.5191 0.8547 143.9947 25.8335)" font-family="'ArialMT'" font-size="14.1373px">ш</text>
<text transform="matrix(0.8106 0.6074 -0.5997 0.8002 153.5559 31.7766)" font-family="'ArialMT'" font-size="14.1373px">к</text>
<text transform="matrix(0.7586 0.6712 -0.6627 0.7489 158.6805 35.5809)" font-family="'ArialMT'" font-size="14.1373px">а</text>
<g>
	<path d="M42.8,140.2l-11.1-21.1l14.3-7.5l1.3,2.5l-11.5,6l3.4,6.5l9.9-5.2l1.3,2.5l-9.9,5.2l5.1,9.6L42.8,140.2z"/>
	<path d="M69.4,123.8c-0.5,1.3-1.2,2.4-1.9,3.2c-0.7,0.8-1.6,1.5-2.6,2c-1.7,0.9-3.2,1.2-4.5,0.8c-1.3-0.3-2.3-1.2-3-2.4
		c-0.4-0.8-0.6-1.5-0.6-2.3c0-0.8,0.2-1.5,0.6-2.2c0.4-0.7,0.8-1.3,1.4-1.8c0.4-0.4,1.1-0.9,2.1-1.6c2-1.4,3.4-2.5,4.2-3.3
		c-0.2-0.4-0.3-0.6-0.3-0.7c-0.6-1.1-1.2-1.7-1.9-1.8c-1-0.2-2.1,0-3.4,0.7c-1.2,0.6-2,1.3-2.4,2.1s-0.4,1.7-0.1,3l-2.7,1
		c-0.3-1.2-0.4-2.3-0.2-3.2c0.2-0.9,0.7-1.9,1.5-2.7c0.8-0.9,1.9-1.7,3.2-2.4c1.3-0.7,2.5-1.1,3.4-1.2c1-0.1,1.8-0.1,2.4,0.2
		c0.6,0.3,1.2,0.7,1.7,1.3c0.3,0.4,0.8,1.2,1.4,2.3l1.8,3.5c1.3,2.4,2.1,3.9,2.6,4.5c0.4,0.6,1,1.1,1.6,1.5l-2.7,1.4
		C70.4,125,69.9,124.5,69.4,123.8z M66.2,118.1c-0.7,0.9-2,2-3.7,3.2c-1,0.7-1.7,1.3-2,1.7c-0.3,0.4-0.5,0.9-0.6,1.4s0.1,1,0.3,1.4
		c0.4,0.7,0.9,1.1,1.7,1.3s1.7,0,2.7-0.5c1-0.5,1.8-1.2,2.3-2.1c0.5-0.8,0.8-1.7,0.8-2.7c0-0.7-0.3-1.7-0.9-2.8L66.2,118.1z"/>
	<path d="M86.9,117l-1.2-2.3c-0.3,2.4-1.4,4.1-3.5,5.2c-0.9,0.5-1.8,0.7-2.8,0.8c-1,0.1-1.8-0.1-2.4-0.4c-0.7-0.3-1.3-0.8-1.8-1.5
		c-0.4-0.5-0.9-1.2-1.4-2.3l-5-9.5l2.6-1.4l4.5,8.5c0.7,1.4,1.2,2.2,1.6,2.7c0.5,0.6,1.2,1,1.9,1.1s1.5,0,2.3-0.4
		c0.8-0.4,1.4-1,1.9-1.8c0.5-0.8,0.7-1.6,0.6-2.4c-0.1-0.8-0.5-1.9-1.1-3.2l-4.3-8.2l2.6-1.4l8.1,15.3L86.9,117z"/>
	<path d="M93.3,113.7l-8.1-15.3l2.3-1.2l1.1,2.2c0.2-2.3,1.4-4,3.5-5.1c0.9-0.5,1.9-0.8,2.8-0.8c0.9-0.1,1.8,0.1,2.4,0.4
		c0.7,0.3,1.3,0.8,1.8,1.5c0.3,0.4,0.8,1.2,1.5,2.4l5,9.4l-2.6,1.4l-4.9-9.3c-0.6-1.1-1.1-1.8-1.6-2.2c-0.5-0.4-1.1-0.6-1.7-0.7
		c-0.7,0-1.4,0.1-2.1,0.5c-1.1,0.6-1.9,1.4-2.3,2.6c-0.4,1.1-0.1,2.7,0.9,4.6l4.4,8.4L93.3,113.7z"/>
	<path d="M100.2,86.9l-1.6-3l2.6-1.4l1.6,3L100.2,86.9z M109.7,105l-8.1-15.3l2.6-1.4l8.1,15.3L109.7,105z"/>
	<path d="M123.3,90.7l2.7-1c0.6,1.9,0.7,3.7,0,5.3c-0.6,1.6-1.8,2.8-3.4,3.7c-2.1,1.1-4.1,1.3-6.1,0.6s-3.7-2.3-5-4.9
		c-0.9-1.7-1.4-3.2-1.5-4.8c-0.1-1.5,0.2-2.9,1-4.1c0.8-1.2,1.8-2.2,3.2-2.9c1.7-0.9,3.2-1.2,4.7-0.9c1.5,0.3,2.8,1.1,3.9,2.5
		l-2.3,1.7c-0.8-0.9-1.6-1.5-2.5-1.7c-0.9-0.2-1.8-0.1-2.6,0.4c-1.3,0.7-2.1,1.7-2.4,3.1c-0.3,1.4,0,3.1,1.1,5.1
		c1.1,2.1,2.3,3.3,3.5,3.9c1.3,0.5,2.6,0.4,3.8-0.2c1-0.5,1.7-1.3,2.1-2.3S123.8,92.1,123.3,90.7z"/>
	<path d="M135.5,88.5l1.6,2.1c-0.6,0.5-1.3,1-1.8,1.3c-0.9,0.5-1.8,0.7-2.4,0.7s-1.2-0.2-1.7-0.6s-1.1-1.3-1.9-2.9l-4.6-8.8l-1.9,1
		l-1.1-2l1.9-1l-2-3.8l1.8-2.9l2.8,5.4l2.6-1.4l1.1,2l-2.6,1.4l4.7,9c0.4,0.7,0.7,1.2,0.9,1.4c0.2,0.2,0.4,0.3,0.7,0.3
		c0.3,0,0.6-0.1,1-0.3C134.7,89,135,88.8,135.5,88.5z"/>
	<path d="M129.7,71.3l-1.6-3l2.6-1.4l1.6,3L129.7,71.3z M139.3,89.5l-8.1-15.3l2.6-1.4l8.1,15.3L139.3,89.5z"/>
	<path d="M152.8,75.2l2.7-1c0.6,1.9,0.7,3.7,0,5.3c-0.6,1.6-1.8,2.8-3.4,3.7c-2.1,1.1-4.1,1.3-6.1,0.6s-3.7-2.3-5-4.9
		c-0.9-1.7-1.4-3.2-1.5-4.8c-0.1-1.5,0.2-2.9,1-4.1c0.8-1.2,1.8-2.2,3.2-2.9c1.7-0.9,3.2-1.2,4.7-0.9c1.5,0.3,2.8,1.1,3.9,2.5
		l-2.3,1.7c-0.8-0.9-1.6-1.5-2.5-1.7s-1.8-0.1-2.6,0.4c-1.3,0.7-2.1,1.7-2.4,3.1c-0.3,1.4,0,3.1,1.1,5.1c1.1,2.1,2.3,3.3,3.5,3.9
		c1.3,0.5,2.6,0.4,3.8-0.2c1-0.5,1.7-1.3,2.1-2.3C153.4,77.7,153.3,76.6,152.8,75.2z"/>
	<path d="M169.6,71.1c-0.5,1.3-1.2,2.4-1.9,3.2c-0.7,0.8-1.6,1.5-2.6,2c-1.7,0.9-3.2,1.2-4.5,0.8c-1.3-0.3-2.3-1.2-3-2.4
		c-0.4-0.8-0.6-1.5-0.6-2.3c0-0.8,0.2-1.5,0.6-2.2c0.4-0.7,0.8-1.3,1.4-1.8c0.4-0.4,1.1-0.9,2.1-1.6c2-1.4,3.4-2.5,4.2-3.3
		c-0.2-0.4-0.3-0.6-0.3-0.7c-0.6-1.1-1.2-1.7-1.9-1.8c-1-0.2-2.1,0-3.4,0.7c-1.2,0.6-2,1.3-2.4,2.1c-0.4,0.7-0.4,1.7-0.1,3l-2.7,1
		c-0.3-1.2-0.4-2.3-0.2-3.2c0.2-0.9,0.7-1.9,1.5-2.7s1.9-1.7,3.2-2.4c1.3-0.7,2.5-1.1,3.4-1.2c1-0.1,1.8-0.1,2.4,0.2
		c0.6,0.3,1.2,0.7,1.7,1.3c0.3,0.4,0.8,1.2,1.4,2.3l1.8,3.5c1.3,2.4,2.1,3.9,2.6,4.5c0.4,0.6,1,1.1,1.6,1.5l-2.7,1.4
		C170.5,72.3,170,71.8,169.6,71.1z M166.3,65.4c-0.7,0.9-2,2-3.7,3.2c-1,0.7-1.7,1.3-2,1.7c-0.3,0.4-0.5,0.9-0.6,1.4
		c0,0.5,0.1,1,0.3,1.4c0.4,0.7,0.9,1.1,1.7,1.3c0.8,0.2,1.7,0,2.7-0.5c1-0.5,1.8-1.2,2.3-2.1c0.5-0.8,0.8-1.7,0.8-2.7
		c0-0.7-0.3-1.7-0.9-2.8L166.3,65.4z"/>
	<path d="M119.4,142l1.3,2.5l-14,7.4c-0.3-0.6-0.6-1.3-0.6-2c-0.1-1.1-0.1-2.4,0.2-3.7c0.3-1.3,0.9-3,1.7-5c1.3-3.1,2.1-5.4,2.3-6.9
		c0.2-1.5,0.1-2.8-0.4-3.8c-0.5-1-1.4-1.7-2.5-2s-2.3-0.2-3.4,0.5c-1.3,0.7-2.1,1.6-2.4,2.7c-0.4,1.1-0.2,2.4,0.5,3.7l-2.8,1.1
		c-0.9-2.1-1-4-0.3-5.6c0.6-1.7,2-3,4-4.1c2-1.1,3.9-1.3,5.7-0.8c1.8,0.5,3.1,1.6,4,3.2c0.4,0.8,0.7,1.8,0.8,2.8
		c0.1,1,0,2.2-0.4,3.5c-0.3,1.3-1,3.3-2,5.8c-0.9,2.1-1.4,3.5-1.6,4.2s-0.3,1.4-0.4,2L119.4,142z"/>
	<path d="M125,142.3l-1.6-3l3-1.6l1.6,3L125,142.3z"/>
	<path d="M126.2,128.3c-1.3-2.5-2.1-4.6-2.4-6.4s-0.1-3.4,0.4-4.7c0.6-1.4,1.6-2.4,3.2-3.3c1.1-0.6,2.2-0.9,3.3-0.9
		c1.1,0,2.1,0.3,3.2,0.9c1,0.6,2,1.4,3,2.5c1,1.1,2,2.7,3.1,4.7c1.3,2.5,2.1,4.6,2.4,6.4c0.3,1.8,0.1,3.4-0.4,4.7
		c-0.6,1.4-1.6,2.5-3.2,3.3c-2,1.1-4,1.2-6,0.3C130.5,134.7,128.3,132.2,126.2,128.3z M128.9,126.9c1.8,3.5,3.4,5.6,4.9,6.3
		c1.4,0.7,2.7,0.8,3.9,0.1s1.9-1.7,2.1-3.3s-0.6-4.1-2.4-7.6c-1.8-3.5-3.5-5.6-4.9-6.3c-1.4-0.7-2.7-0.8-3.9-0.1
		c-1.2,0.6-1.9,1.6-2.1,3C126.3,120.8,127.1,123.4,128.9,126.9z"/>
	<path d="M116.9,185.1l-6.7-10.8l-2.5-4.7l3.2-1.7l2.5,4.7l5.1,11.6L116.9,185.1z M119,190.7l-1.6-3l3-1.6l1.6,3L119,190.7z"/>
	<path d="M125.1,180.7l-6.7-10.8l-2.5-4.7l3.2-1.7l2.5,4.7l5.1,11.6L125.1,180.7z M127.2,186.3l-1.6-3l3-1.6l1.6,3L127.2,186.3z"/>
	<path d="M133.3,176.4l-6.7-10.8l-2.5-4.7l3.2-1.7l2.5,4.7l5.1,11.6L133.3,176.4z M135.4,182l-1.6-3l3-1.6l1.6,3L135.4,182z"/>
	<path d="M141.5,172.1l-6.7-10.8l-2.5-4.7l3.2-1.7l2.5,4.7l5.1,11.6L141.5,172.1z M143.6,177.7l-1.6-3l3-1.6l1.6,3L143.6,177.7z"/>
	<path d="M149.7,167.8L143,157l-2.5-4.7l3.2-1.7l2.5,4.7l5.1,11.6L149.7,167.8z M151.8,173.4l-1.6-3l3-1.6l1.6,3L151.8,173.4z"/>
	<path d="M157.9,163.5l-6.7-10.8l-2.5-4.7l3.2-1.7l2.5,4.7l5.1,11.6L157.9,163.5z M160,169.1l-1.6-3l3-1.6l1.6,3L160,169.1z"/>
	<path d="M166.1,159.2l-6.7-10.8l-2.5-4.7l3.2-1.7l2.5,4.7l5.1,11.6L166.1,159.2z M168.2,164.8l-1.6-3l3-1.6l1.6,3L168.2,164.8z"/>
</g>
</svg>
